<svg viewBox="0 0 24 24" fill="none" xmlns="http://www.w3.org/2000/svg">
<rect x="6.59766" y="3.64453" width="2.7" height="3.10547" fill="#F66015"/>
<rect x="14.7012" y="3.64453" width="2.7" height="3.10547" fill="#F66015"/>
<rect x="2" y="6.75" width="20" height="15.25" rx="1.8" fill="#FF7834"/>
<path d="M2 8.55C2 7.55589 2.80589 6.75 3.8 6.75H20.2C21.1941 6.75 22 7.55589 22 8.55V12.45C22 13.7755 20.9255 14.85 19.6 14.85H4.4C3.07452 14.85 2 13.7755 2 12.45V8.55Z" fill="#CD4D0C"/>
<path d="M6.59766 3.8C6.59766 2.80589 7.40354 2 8.39766 2H15.5977C16.5918 2 17.3977 2.80589 17.3977 3.8C17.3977 4.29706 16.9947 4.7 16.4977 4.7H7.49766C7.0006 4.7 6.59766 4.29706 6.59766 3.8Z" fill="#943F14"/>
<rect x="9.29688" y="12.1504" width="5.4" height="1.35" rx="0.675" fill="#943F14"/>
</svg>
