<svg viewBox="0 0 56 56" fill="none" xmlns="http://www.w3.org/2000/svg">
<path fill-rule="evenodd" clip-rule="evenodd" d="M29.2534 2C31.5581 2 33.4264 3.86831 33.4264 6.17299C33.4264 6.69728 33.7024 7.21219 34.1879 7.41019C39.5864 9.61202 43.6258 14.5576 44.4651 20.6422L45.0187 24.6563C45.1735 25.7782 45.4373 26.8824 45.8065 27.9531L48.2571 35.0596C48.5695 35.9655 48.7289 36.9171 48.7289 37.8753C48.7289 42.6456 44.8618 46.5126 40.0916 46.5126H15.6364C10.8661 46.5126 6.99902 42.6456 6.99902 37.8753C6.99902 36.9171 7.15848 35.9655 7.47086 35.0596L9.92139 27.9531C10.2906 26.8824 10.5544 25.7782 10.7092 24.6563L11.2629 20.6422C12.1019 14.559 16.1397 9.61431 21.5363 7.41172C22.0222 7.21339 22.2984 6.69784 22.2984 6.17299C22.2984 3.86831 24.1668 2 26.4714 2H29.2534Z" fill="#FFA375"/>
<path d="M31.2465 47.9029C32.4532 47.9029 33.4697 48.9172 33.0079 50.0321C32.7283 50.7072 32.3184 51.3205 31.8018 51.8372C31.2851 52.3538 30.6718 52.7637 29.9967 53.0433C29.3216 53.3229 28.5981 53.4668 27.8675 53.4668C27.1368 53.4668 26.4133 53.3229 25.7382 53.0433C25.0632 52.7637 24.4498 52.3538 23.9331 51.8372C23.4165 51.3205 23.0066 50.7072 22.727 50.0321C22.2652 48.9172 23.2817 47.9029 24.4884 47.9029L27.8675 47.9029H31.2465Z" fill="#F66015"/>
<circle cx="34.9998" cy="18" r="4" fill="#FFC5A8"/>
</svg>
