<svg viewBox="0 0 24 24" fill="none" xmlns="http://www.w3.org/2000/svg">
<rect x="10.7988" y="7.26562" width="2.4" height="6" rx="0.6" fill="#FFA375"/>
<mask id="mask0_1671_45441" style="mask-type:alpha" maskUnits="userSpaceOnUse" x="10" y="7" width="4" height="7">
<rect x="10.7988" y="7.26562" width="2.4" height="6" rx="0.6" fill="#D9D9D9"/>
</mask>
<g mask="url(#mask0_1671_45441)">
<path d="M9.93359 12.2462L13.9133 8.26855" stroke="#FF7834" stroke-width="1.8"/>
</g>
<rect x="3" y="13.1992" width="18" height="8.80078" rx="1.2" fill="#FFC5A8"/>
<rect x="3" y="16.8008" width="18" height="2.4" fill="#FFE7DB"/>
<path d="M13.8508 5.2875C13.8508 6.19532 13.0229 6.93125 12.0016 6.93125C10.9803 6.93125 10.1523 6.19532 10.1523 5.2875C10.1523 4.37968 10.9803 2 12.0016 2C13.0229 2 13.8508 4.37968 13.8508 5.2875Z" fill="#F66015"/>
<path d="M13.1782 5.67878C13.1782 6.25562 12.6521 6.72324 12.0031 6.72324C11.3542 6.72324 10.8281 6.25562 10.8281 5.67878C10.8281 5.10193 11.3542 3.58984 12.0031 3.58984C12.6521 3.58984 13.1782 5.10193 13.1782 5.67878Z" fill="#FFA375"/>
<path d="M12.5984 5.97891C12.5984 6.31718 12.3298 6.59141 11.9984 6.59141C11.6671 6.59141 11.3984 6.31718 11.3984 5.97891C11.3984 5.64063 11.6671 4.75391 11.9984 4.75391C12.3298 4.75391 12.5984 5.64063 12.5984 5.97891Z" fill="#FFF2EB"/>
<path d="M4.37422 15.1703C5.42658 15.1703 6.27969 14.3172 6.27969 13.2648C6.27969 14.3172 7.1328 15.1703 8.18516 15.1703C9.23752 15.1703 10.0906 14.3172 10.0906 13.2648C10.0906 14.3172 10.9437 15.1703 11.9961 15.1703C13.0485 15.1703 13.9016 14.3172 13.9016 13.2648C13.9016 14.3172 14.7547 15.1703 15.807 15.1703C16.8594 15.1703 17.7125 14.3172 17.7125 13.2648C17.7125 14.3172 18.5656 15.1703 19.618 15.1703C20.6703 15.1703 21.5234 14.3172 21.5234 13.2648C21.5234 12.2125 20.6703 11.3594 19.618 11.3594H4.33906C3.30292 11.3781 2.46875 12.2242 2.46875 13.2648C2.46875 14.3172 3.32186 15.1703 4.37422 15.1703Z" fill="#FF7834"/>
</svg>
