<svg viewBox="0 0 18 18" fill="none" xmlns="http://www.w3.org/2000/svg">
<path d="M8.32759 2.25C7.32774 2.25 6.45483 2.79994 5.98815 3.61721C5.59718 4.30188 4.98843 4.98214 4.2 4.98214C2.70883 4.98214 1.5 6.20536 1.5 7.71429V12.2679C1.5 13.7768 2.70883 15 4.2 15H13.8C15.2912 15 16.5 13.7768 16.5 12.2679V7.71429C16.5 6.20536 15.2912 4.98214 13.8 4.98214C13.0116 4.98214 12.4028 4.30188 12.0119 3.61721C11.5452 2.79994 10.6723 2.25 9.67241 2.25H8.32759Z" fill="#464C52"/>
<path d="M12.4621 9.75011C12.4621 11.6619 10.9124 13.2117 9.0006 13.2117C7.08885 13.2117 5.53906 11.6619 5.53906 9.75011C5.53906 7.83836 7.08885 6.28857 9.0006 6.28857C10.9124 6.28857 12.4621 7.83836 12.4621 9.75011Z" fill="white"/>
<path d="M11.3087 9.75008C11.3087 11.0246 10.2756 12.0578 9.00105 12.0578C7.72655 12.0578 6.69336 11.0246 6.69336 9.75008C6.69336 8.47557 7.72655 7.44238 9.00105 7.44238C10.2756 7.44238 11.3087 8.47557 11.3087 9.75008Z" fill="#464C52"/>
</svg>
