<svg viewBox="0 0 24 24" fill="none" xmlns="http://www.w3.org/2000/svg">
<path d="M6.34383 4.92864C5.9533 4.53811 5.32014 4.53811 4.92961 4.92864C4.53909 5.31916 4.53909 5.95232 4.92961 6.34285L10.5868 12L4.9302 17.6566C4.53968 18.0471 4.53968 18.6802 4.9302 19.0708C5.32073 19.4613 5.95389 19.4613 6.34442 19.0708L12.001 13.4142L17.6575 19.0708C18.0481 19.4613 18.6812 19.4613 19.0717 19.0708C19.4623 18.6802 19.4623 18.0471 19.0717 17.6566L13.4152 12L19.0723 6.34285C19.4629 5.95232 19.4629 5.31916 19.0723 4.92864C18.6818 4.53811 18.0487 4.53811 17.6581 4.92864L12.001 10.5858L6.34383 4.92864Z" fill="#26282B"/>
</svg>
