<svg width="24" height="24" viewBox="0 0 24 24" fill="none" xmlns="http://www.w3.org/2000/svg">
<circle cx="12" cy="12" r="7" fill="#FFE7DB"/>
<path d="M12 21C16.9706 21 21 16.9706 21 12C21 7.02944 16.9706 3 12 3C7.02944 3 3 7.02944 3 12" stroke="#FF7834" stroke-width="2" stroke-linecap="round" stroke-linejoin="round"/>
<rect x="1" y="8" width="5" height="8" rx="2.5" fill="#F66015"/>
<rect x="18" y="8" width="5" height="8" rx="2.5" fill="#F66015"/>
<path d="M9 11L9 12" stroke="#FF7834" stroke-width="2" stroke-linecap="round"/>
<path d="M15 11L15 12" stroke="#FF7834" stroke-width="2" stroke-linecap="round"/>
<path d="M10 14C10 13.4477 10.4477 13 11 13H13C13.5523 13 14 13.4477 14 14C14 15.1046 13.1046 16 12 16C10.8954 16 10 15.1046 10 14Z" fill="#FF7834"/>
</svg>
