<svg viewBox="0 0 24 24" fill="none" xmlns="http://www.w3.org/2000/svg">
<path d="M5 15.7729C5 14.2227 5.90146 12.8139 7.30908 12.1644L7.8004 11.9377C8.2628 11.7244 8.68171 11.4273 9.03594 11.0614C10.6572 9.38687 13.3428 9.38687 14.9641 11.0614C15.3183 11.4273 15.7372 11.7244 16.1996 11.9377L16.6909 12.1644C18.0985 12.8139 19 14.2227 19 15.7729C19 18.4006 16.4953 20.3049 13.9633 19.6023L13.2196 19.3959C12.4216 19.1745 11.5784 19.1745 10.7804 19.3959L10.0367 19.6023C7.5047 20.3049 5 18.4006 5 15.7729Z" fill="#FF7834"/>
<path d="M3.14494 10.4342C2.7191 9.49062 3.07755 8.37788 3.97408 7.86027C4.87061 7.34266 6.01349 7.5886 6.61774 8.42918L6.89711 8.81781C7.60948 9.80879 7.31048 11.1982 6.25354 11.8084C5.1966 12.4186 3.84384 11.9829 3.34182 10.8705L3.14494 10.4342Z" fill="#FF7834"/>
<path d="M6.85144 6.86679C6.65779 5.68284 7.39278 4.54477 8.55158 4.23427C9.71039 3.92377 10.9159 4.54187 11.3402 5.66403L11.5364 6.18286C12.0365 7.5058 11.2851 8.97138 9.91897 9.33744C8.55283 9.7035 7.16928 8.80997 6.94098 7.41418L6.85144 6.86679Z" fill="#FF7834"/>
<path d="M17.1486 6.86679C17.3422 5.68284 16.6072 4.54477 15.4484 4.23427C14.2896 3.92377 13.0841 4.54187 12.6598 5.66403L12.4636 6.18286C11.9635 7.5058 12.7149 8.97138 14.081 9.33744C15.4472 9.7035 16.8307 8.80997 17.059 7.41418L17.1486 6.86679Z" fill="#FF7834"/>
<path d="M21.0836 10.4342C21.5094 9.49062 21.151 8.37788 20.2544 7.86027C19.3579 7.34266 18.215 7.5886 17.6108 8.42918L17.3314 8.81781C16.619 9.80879 16.918 11.1982 17.975 11.8084C19.0319 12.4186 20.3847 11.9829 20.8867 10.8705L21.0836 10.4342Z" fill="#FF7834"/>
<circle cx="16.5" cy="14.5" r="1.5" fill="#FFC5A8"/>
</svg>
