<svg viewBox="0 0 24 24" fill="none" xmlns="http://www.w3.org/2000/svg">
<path d="M21 9.16789C21 15.0026 12.6597 19.7254 12.3046 19.9204C12.2109 19.9727 12.1063 20 12 20C11.8937 20 11.7891 19.9727 11.6954 19.9204C11.3403 19.7254 3 15.0026 3 9.16789C3.00149 7.79775 3.52687 6.48418 4.46088 5.51534C5.39489 4.54651 6.66125 4.00154 7.98214 4C9.64152 4 11.0944 4.74017 12 5.9913C12.9056 4.74017 14.3585 4 16.0179 4C17.3387 4.00154 18.6051 4.54651 19.5391 5.51534C20.4731 6.48418 20.9985 7.79775 21 9.16789Z" fill="#FF7834"/>
<path d="M21 15.938C21 18.126 17.7566 19.897 17.6184 19.9702C17.582 19.9897 17.5413 20 17.5 20C17.4587 20 17.418 19.9897 17.3816 19.9702C17.2434 19.897 14 18.126 14 15.938C14.0006 15.4242 14.2049 14.9316 14.5681 14.5683C14.9313 14.2049 15.4238 14.0006 15.9375 14C16.5828 14 17.1478 14.2776 17.5 14.7467C17.8522 14.2776 18.4172 14 19.0625 14C19.5762 14.0006 20.0687 14.2049 20.4319 14.5683C20.7951 14.9316 20.9994 15.4242 21 15.938Z" fill="#F66015"/>
</svg>
