<svg viewBox="0 0 24 24" fill="none" xmlns="http://www.w3.org/2000/svg">
<path d="M5.83076 14.8798C5.87597 14.6736 5.98165 14.4818 6.13394 14.3295L11.8048 8.65863C12.2222 8.24129 12.8771 8.21956 13.2676 8.61008L15.3889 10.7314C15.7795 11.1219 15.7577 11.7768 15.3404 12.1942L9.66947 17.8651C9.51718 18.0174 9.32539 18.123 9.11924 18.1683L6.40196 18.7642C5.68255 18.922 5.07702 18.3165 5.2348 17.597L5.83076 14.8798Z" fill="#26282B"/>
<path d="M13.9744 7.90268C13.5839 7.51216 13.5839 6.87899 13.9744 6.48847L15.0351 5.42781C15.4256 5.03729 16.0588 5.03729 16.4493 5.42781L18.5706 7.54913C18.9611 7.93965 18.9611 8.57282 18.5706 8.96334L17.51 10.024C17.1194 10.4145 16.4863 10.4145 16.0957 10.024L13.9744 7.90268Z" fill="#26282B"/>
</svg>
