<svg width="68" height="53" viewBox="0 0 68 53" fill="none" xmlns="http://www.w3.org/2000/svg">
<path d="M0.5 2.56487C0.5 1.27837 1.72993 0.34856 2.96769 0.699338L17.1172 4.70928C17.47 4.80926 17.8438 4.80716 18.1954 4.70324L33.571 0.159076C33.9227 0.0551581 34.2965 0.0530636 34.6493 0.153035L50.7265 4.70928C51.0792 4.80926 51.4531 4.80716 51.8047 4.70324L65.23 0.735478C66.4725 0.368287 67.7186 1.29942 67.7186 2.59497V46.6881C67.7186 47.5473 67.1531 48.3041 66.3291 48.5476L51.8047 52.8402C51.4531 52.9441 51.0792 52.9462 50.7265 52.8462L34.6493 48.29C34.2965 48.19 33.9227 48.1921 33.571 48.296L18.1954 52.8402C17.8438 52.9441 17.4699 52.9462 17.1172 52.8462L1.91031 48.5366C1.07591 48.3002 0.5 47.5384 0.5 46.6711V2.56487Z" fill="#F4F5F7"/>
<mask id="mask0_1384_34953" style="mask-type:alpha" maskUnits="userSpaceOnUse" x="0" y="0" width="68" height="53">
<path d="M7.61289 50.1532L3.81117 49.0758L4.07551 48.1431L2.17465 47.6044C1.75745 47.4861 1.4695 47.1052 1.4695 46.6716V44.8338H0.5V41.1583H1.4695V37.4828H0.5V33.8073H1.4695V30.1318H0.5V26.4562H1.4695V22.7807H0.5V19.1052H1.4695V15.4297H0.5V11.7542H1.4695V8.07864H0.5V4.40312H1.4695V2.56536C1.4695 1.92211 2.08446 1.4572 2.70334 1.63259L4.47203 2.13383L4.73637 1.20107L8.27375 2.20356L8.00941 3.13632L11.5468 4.13881L11.8111 3.20604L15.3485 4.20853L15.0842 5.14129L16.8528 5.64254C17.382 5.79249 17.9428 5.78935 18.4702 5.63347L20.3922 5.06545L20.1174 4.13571L23.9613 2.99967L24.2361 3.92941L28.08 2.79337L27.8052 1.86363L31.6491 0.727585L31.9239 1.65733L33.8458 1.08931C34.0216 1.03735 34.2086 1.0363 34.3849 1.08629L34.6493 0.153523L34.3849 1.08629L36.3946 1.65582L36.6589 0.723054L40.6782 1.86212L40.4139 2.79488L44.4332 3.93394L44.6975 3.00118L48.7168 4.14024L48.4525 5.07301L50.4621 5.64254C50.9913 5.79249 51.5521 5.78935 52.0795 5.63347L53.7577 5.1375L53.4829 4.20776L56.8392 3.21582L57.114 4.14556L60.4703 3.15362L60.1955 2.22388L63.5519 1.23194L63.8266 2.16168L65.5048 1.66571C66.126 1.48211 66.7491 1.94768 66.7491 2.59545V4.43267H67.7186V8.1071H66.7491V11.7815H67.7186V15.456H66.7491V19.1304H67.7186V22.8048H66.7491V26.4792H67.7186V30.1537H66.7491V33.8281H67.7186V37.5025H66.7491V41.177H67.7186V44.8514H66.7491V46.6886C66.7491 47.1182 66.4664 47.4966 66.0544 47.6183L64.2388 48.1549L64.5136 49.0847L60.8825 50.1578L60.6077 49.2281L56.9766 50.3012L57.2514 51.231L53.6203 52.3041L53.3455 51.3744L51.5299 51.9109C51.3541 51.9629 51.1672 51.9639 50.9908 51.914L48.9812 51.3444L48.7168 52.2772L44.6975 51.1381L44.9619 50.2054L40.9426 49.0663L40.6782 49.9991L36.6589 48.86L36.9233 47.9272L34.9136 47.3577C34.3845 47.2078 33.8237 47.2109 33.2963 47.3668L31.3743 47.9348L31.6491 48.8645L27.8052 50.0006L27.5304 49.0708L23.6865 50.2069L23.9613 51.1366L20.1174 52.2727L19.8426 51.3429L17.9207 51.9109C17.7449 51.9629 17.5579 51.9639 17.3815 51.914L15.4807 51.3753L15.2163 52.308L11.4146 51.2306L11.679 50.2979L7.87723 49.2205L7.61289 50.1532Z" fill="#F8F8F9" stroke="#D8DBE0" stroke-width="1.939" stroke-dasharray="3.88 3.88"/>
</mask>
<g mask="url(#mask0_1384_34953)">
<rect x="17.9512" y="-10.9873" width="16.8046" height="63.9869" fill="#E9EBED"/>
<rect x="50.9141" y="-10.9873" width="16.8046" height="63.9869" fill="#E9EBED"/>
</g>
<path d="M7.61289 50.1527L3.81117 49.0753L4.07551 48.1426L2.17465 47.6039C1.75745 47.4856 1.4695 47.1047 1.4695 46.6711V44.8333H0.5V41.1578H1.4695V37.4823H0.5V33.8068H1.4695V30.1313H0.5V26.4557H1.4695V22.7802H0.5V19.1047H1.4695V15.4292H0.5V11.7537H1.4695V8.07815H0.5V4.40263H1.4695V2.56487C1.4695 1.92162 2.08446 1.45671 2.70334 1.6321L4.47203 2.13335L4.73637 1.20058L8.27375 2.20307L8.00941 3.13583L11.5468 4.13832L11.8111 3.20555L15.3485 4.20804L15.0842 5.14081L16.8528 5.64205C17.382 5.79201 17.9428 5.78886 18.4702 5.63299L20.3922 5.06496L20.1174 4.13522L23.9613 2.99918L24.2361 3.92892L28.08 2.79288L27.8052 1.86314L31.6491 0.727097L31.9239 1.65684L33.8458 1.08882C34.0216 1.03686 34.2086 1.03581 34.3849 1.0858L34.6493 0.153035L34.3849 1.0858L36.3946 1.65533L36.6589 0.722566L40.6782 1.86163L40.4139 2.79439L44.4332 3.93346L44.6975 3.00069L48.7168 4.13975L48.4525 5.07252L50.4621 5.64205C50.9913 5.79201 51.5521 5.78886 52.0795 5.63299L53.7577 5.13702L53.4829 4.20727L56.8392 3.21533L57.114 4.14507L60.4703 3.15313L60.1955 2.22339L63.5519 1.23145L63.8266 2.16119L65.5048 1.66522C66.126 1.48163 66.7491 1.94719 66.7491 2.59497V4.43218H67.7186V8.10661H66.7491V11.781H67.7186V15.4555H66.7491V19.1299H67.7186V22.8043H66.7491V26.4788H67.7186V30.1532H66.7491V33.8276H67.7186V37.502H66.7491V41.1765H67.7186V44.8509H66.7491V46.6881C66.7491 47.1177 66.4664 47.4961 66.0544 47.6178L64.2388 48.1544L64.5136 49.0842L60.8825 50.1573L60.6077 49.2276L56.9766 50.3007L57.2514 51.2305L53.6203 52.3036L53.3455 51.3739L51.5299 51.9104C51.3541 51.9624 51.1672 51.9635 50.9908 51.9135L48.9812 51.3439L48.7168 52.2767L44.6975 51.1376L44.9619 50.2049L40.9426 49.0658L40.6782 49.9986L36.6589 48.8595L36.9233 47.9268L34.9136 47.3572C34.3845 47.2073 33.8237 47.2104 33.2963 47.3663L31.3743 47.9343L31.6491 48.864L27.8052 50.0001L27.5304 49.0703L23.6865 50.2064L23.9613 51.1361L20.1174 52.2722L19.8426 51.3424L17.9207 51.9104C17.7449 51.9624 17.5579 51.9635 17.3815 51.9135L15.4807 51.3748L15.2163 52.3075L11.4146 51.2301L11.679 50.2974L7.87723 49.22L7.61289 50.1527Z" stroke="#D8DBE0" stroke-width="1.939" stroke-dasharray="3.88 3.88"/>
</svg>
