<svg width="24" height="24" viewBox="0 0 24 24" fill="none" xmlns="http://www.w3.org/2000/svg">
<path fill-rule="evenodd" clip-rule="evenodd" d="M12 22C17.5228 22 22 17.5228 22 12C22 6.47715 17.5228 2 12 2C6.47715 2 2 6.47715 2 12C2 17.5228 6.47715 22 12 22ZM12.9382 14.4382L13.1289 7H10.8696L11.0603 14.4382H12.9382ZM12.0139 15.3038C11.3244 15.2965 10.7669 15.8467 10.7815 16.5215C10.7669 17.2037 11.3244 17.7539 12.0139 17.7539C12.6668 17.7539 13.2316 17.2037 13.2316 16.5215C13.2316 15.8467 12.6668 15.2965 12.0139 15.3038Z" fill="#1B1D1F"/>
</svg>
