<svg width="22" height="22" viewBox="0 0 22 22" fill="none" xmlns="http://www.w3.org/2000/svg">
<path fill-rule="evenodd" clip-rule="evenodd" d="M17.2658 15.1454C18.2792 14.3187 19.1884 13.2662 19.9364 11.988C20.2417 11.4664 20.2417 10.533 19.9364 10.0113C17.061 5.09779 11.8034 3.51993 7.3981 5.27775L8.11047 5.99013C9.05236 5.66211 10.0277 5.49967 10.9987 5.49967C14.0698 5.49967 17.1851 7.12475 19.1453 10.4743C19.1906 10.5517 19.2487 10.7404 19.2487 10.9997C19.2487 11.259 19.1906 11.4476 19.1453 11.525C18.4344 12.7398 17.5716 13.7278 16.614 14.4937L17.2658 15.1454ZM5.38339 7.50568C4.42584 8.27157 3.56302 9.25953 2.85214 10.4743C2.80684 10.5517 2.7487 10.7404 2.7487 10.9997C2.7487 11.259 2.80684 11.4476 2.85214 11.525C4.81228 14.8746 7.92759 16.4997 10.9987 16.4997C11.9697 16.4997 12.945 16.3372 13.8869 16.0092L14.5993 16.7216C10.1939 18.4794 4.93637 16.9016 2.06098 11.988C1.75571 11.4664 1.75571 10.533 2.06098 10.0113C2.80898 8.73313 3.71817 7.68067 4.73164 6.85394L5.38339 7.50568Z" fill="#9FA4A9"/>
<path fill-rule="evenodd" clip-rule="evenodd" d="M14.426 12.3056C14.5806 11.8999 14.6654 11.4597 14.6654 10.9997C14.6654 8.97463 13.0237 7.33301 10.9987 7.33301C10.5387 7.33301 10.0984 7.41772 9.69275 7.5724L14.426 12.3056ZM7.57143 9.69372C7.41675 10.0994 7.33203 10.5397 7.33203 10.9997C7.33203 13.0247 8.97365 14.6663 10.9987 14.6663C11.4587 14.6663 11.899 14.5816 12.3047 14.4269L7.57143 9.69372Z" fill="#9FA4A9"/>
<path d="M3 3L19 19" stroke="#9FA4A9" stroke-linecap="round"/>
</svg>
