<svg viewBox="0 0 19 18" fill="none" xmlns="http://www.w3.org/2000/svg">
<g clip-path="url(#clip0_1588_38365)">
<path d="M18.5 9C18.5 13.9706 14.4706 18 9.5 18C4.52944 18 0.5 13.9706 0.5 9C0.5 4.02944 4.52944 0 9.5 0C14.4706 0 18.5 4.02944 18.5 9Z" fill="#26282B"/>
<path d="M6.8864 5.24555C6.56924 4.91815 6.05503 4.91815 5.73787 5.24555C5.42071 5.57295 5.42071 6.10377 5.73787 6.43117L8.35147 9.12915L5.98809 11.5688C5.67093 11.8962 5.67093 12.4271 5.98809 12.7545C6.30525 13.0818 6.81947 13.0818 7.13662 12.7545L9.5 10.3148L11.8634 12.7545C12.1805 13.0819 12.6947 13.0818 13.0119 12.7545C13.3291 12.4271 13.3291 11.8962 13.0119 11.5688L10.6485 9.12915L13.2621 6.43117C13.5793 6.10377 13.5793 5.57295 13.2621 5.24555C12.945 4.91815 12.4308 4.91815 12.1136 5.24555L9.5 7.94354L6.8864 5.24555Z" fill="#F8F8F9"/>
</g>
<defs>
<clipPath id="clip0_1588_38365">
<rect width="18" height="18" fill="white" transform="translate(0.5)"/>
</clipPath>
</defs>
</svg>
