<svg viewBox="0 0 24 24" fill="none" xmlns="http://www.w3.org/2000/svg">
<path fill-rule="evenodd" clip-rule="evenodd" d="M8.04888 3L8.05023 3C9.54895 3 10.932 3.50769 12 4.41874C13.068 3.50769 14.451 3 15.9498 3H15.9511C17.5687 3.00189 19.1106 3.66839 20.2411 4.83881C21.3702 6.00781 21.9982 7.58412 22 9.21986L22 9.22111C22 12.6045 19.6127 15.4886 17.4793 17.4229C15.3024 19.3967 13.0891 20.6507 12.8572 20.7782C12.596 20.9229 12.3014 21 12 21C11.6986 21 11.404 20.9229 11.1428 20.7782C10.9109 20.6507 8.6976 19.3967 6.52068 17.4229C4.38734 15.4886 2 12.6045 2 9.22111L2 9.21986C2.00178 7.58412 2.62981 6.00781 3.75891 4.83881C4.88939 3.66839 6.43129 3.00189 8.04888 3Z" fill="#F17272"/>
</svg>
