<svg viewBox="0 0 24 24" fill="none" xmlns="http://www.w3.org/2000/svg">
<path d="M10.6 10C10.6 9.2268 11.2268 8.6 12 8.6H20C20.7732 8.6 21.4 9.2268 21.4 10V18C21.4 18.7732 20.7732 19.4 20 19.4H18.107C17.8396 19.4 17.5898 19.5337 17.4414 19.7562L17.9406 20.0891L17.4414 19.7562L16.1664 21.6687C16.0872 21.7875 15.9128 21.7875 15.8336 21.6687L14.5586 19.7562L14.0594 20.0891L14.5586 19.7562C14.4102 19.5337 14.1604 19.4 13.893 19.4L12 19.4C11.2268 19.4 10.6 18.7732 10.6 18V10Z" fill="#E9EBED" stroke="#9FA4A9" stroke-width="1.2"/>
<path d="M16.6864 11L19 17H17.839L17.2373 15.4278H14.7881L14.161 17H13L15.3644 11H16.6864ZM15.1356 14.5374H16.8898L16.0254 12.2914L15.1356 14.5374Z" fill="#9FA4A9"/>
<path fill-rule="evenodd" clip-rule="evenodd" d="M4 2C2.89543 2 2 2.89543 2 4V12C2 13.1046 2.89543 14 4 14H9V10C9 8.34315 10.3431 7 12 7H14V4C14 2.89543 13.1046 2 12 2H4Z" fill="#E9EBED"/>
<path fill-rule="evenodd" clip-rule="evenodd" d="M4 3.2H12C12.4418 3.2 12.8 3.55817 12.8 4V7H14V4C14 2.89543 13.1046 2 12 2H4C2.89543 2 2 2.89543 2 4V12C2 13.1046 2.89543 14 4 14H9V12.8H4C3.55817 12.8 3.2 12.4418 3.2 12V4C3.2 3.55817 3.55817 3.2 4 3.2Z" fill="#9FA4A9"/>
<path fill-rule="evenodd" clip-rule="evenodd" d="M8.91848 6.40446H6.5191C6.81017 7.15256 7.21436 7.8166 7.74086 8.37803C8.23902 7.83599 8.62937 7.18333 8.91848 6.40446ZM7.06727 8.99468C6.37024 9.53157 5.51812 9.92227 4.5 10.1927C4.66399 10.3928 4.92364 10.793 5.0193 11C6.06219 10.6705 6.94984 10.2181 7.69178 9.61501C8.07799 9.94588 8.51162 10.2311 9 10.4694V10C9 9.80008 9.01956 9.60472 9.05686 9.41574C8.81748 9.27809 8.59292 9.12711 8.38285 8.96352C9.01527 8.27237 9.51118 7.42804 9.87949 6.40446H10.8819V5.59023H8.1556V4.5H7.30832V5.59023H4.62299V6.40446H5.60884C5.97758 7.41764 6.44813 8.28356 7.06727 8.99468Z" fill="#9FA4A9"/>
</svg>
