<svg viewBox="0 0 16 16" fill="none" xmlns="http://www.w3.org/2000/svg">
<path fill-rule="evenodd" clip-rule="evenodd" d="M4.50994 10.7306C5.43042 11.8002 6.61084 12.694 7.60152 13.2993C7.82977 13.4387 8.1179 13.4357 8.3517 13.2824C9.35156 12.6265 10.5469 11.6813 11.4802 10.5953C12.4298 9.49015 13 8.36613 13 7.33252C13 4.02387 10.2646 2.33252 8 2.33252C6.85557 2.33252 5.59215 2.6938 4.63474 3.48025C3.70868 4.24094 3 5.45277 3 7.33252C3 8.49266 3.58181 9.65203 4.50994 10.7306ZM7.08018 14.1526C4.97847 12.8686 2 10.3239 2 7.33252C2 2.99919 5.33333 1.33252 8 1.33252C10.6667 1.33252 14 3.33252 14 7.33252C14 10.1024 11.0029 12.7392 8.90019 14.1185C8.34818 14.4806 7.64354 14.4968 7.08018 14.1526Z" fill="#9FA4A9"/>
<path fill-rule="evenodd" clip-rule="evenodd" d="M8.00065 9.00081C8.92113 9.00081 9.66732 8.25462 9.66732 7.33415C9.66732 6.41367 8.92113 5.66748 8.00065 5.66748C7.08018 5.66748 6.33398 6.41367 6.33398 7.33415C6.33398 8.25462 7.08018 9.00081 8.00065 9.00081ZM8.00065 10.0008C9.47341 10.0008 10.6673 8.80691 10.6673 7.33415C10.6673 5.86139 9.47341 4.66748 8.00065 4.66748C6.52789 4.66748 5.33398 5.86139 5.33398 7.33415C5.33398 8.80691 6.52789 10.0008 8.00065 10.0008Z" fill="#9FA4A9"/>
</svg>
