<svg viewBox="0 0 320 320" fill="none" xmlns="http://www.w3.org/2000/svg">
<g clip-path="url(#clip0_2212_98969)">
<path fill-rule="evenodd" clip-rule="evenodd" d="M148.882 43.835C200.41 61.5694 168.978 151.529 151.579 184.886C150.593 186.776 151.112 189.136 152.984 190.155C162.914 195.558 174.781 194.964 184.951 190.057C186.862 189.135 187.562 186.839 186.794 184.862C172.855 148.983 174.465 74.559 228.886 75.1033C275.212 75.5666 254.212 164.375 230.321 193.645C240.521 203.835 254.702 202.68 268.438 203.954C271.927 204.278 274.22 207.589 273.561 211.029L264.735 257.156C264.342 260.375 261.129 262.439 258.265 260.914C251.298 257.201 246.294 251.453 245.963 243.421C229.118 239.947 217.955 227.961 207.826 217.215C206.806 216.132 205.167 215.927 203.875 216.667C181.659 229.4 153.694 230.072 132.202 215.418C113.265 238.314 98.262 251.203 78.3261 264.383C75.0727 266.534 70.7102 265.674 68.4535 262.496L37.9692 219.556C36.1757 216.892 37.2076 213.265 40.3188 212.461C49.449 210.102 57.7663 211.671 64.1485 218.296C64.6426 218.809 65.3481 219.075 66.0494 218.949C79.7791 216.48 97.0684 207.081 107.536 194.107C108.858 192.468 108.893 190.207 107.913 188.344C86.4071 147.441 93.9088 24.9147 148.882 43.835ZM144.834 86.2336C161.667 95.8828 143.722 136.47 132.406 153.054C131.048 155.044 128.296 154.506 127.9 152.13C124.357 130.862 127.929 76.543 144.834 86.2336ZM220.106 104.245C236.698 109.083 222.78 143.454 215.205 157.991C214.209 159.903 211.795 160 211.032 157.983C205.375 143.022 203.638 99.4418 220.106 104.245Z" fill="#F77F3B"/>
<g filter="url(#filter0_d_2212_98969)">
<path fill-rule="evenodd" clip-rule="evenodd" d="M215.873 104.126C211.823 105.28 209.377 110.344 208.116 117.053C207.651 119.529 207.347 122.231 207.183 125.042C206.994 128.292 206.992 131.69 207.146 135.059C207.491 142.646 208.622 150.085 210.165 155.364C210.442 156.311 210.732 157.188 211.033 157.984C211.795 160 214.209 159.903 215.206 157.991C215.529 157.371 215.863 156.715 216.207 156.027C218.733 150.962 221.73 144.149 224.057 137.116C225.223 133.592 226.221 130.013 226.907 126.571C229.028 115.93 228.173 106.597 220.107 104.245C218.534 103.786 217.127 103.769 215.873 104.126ZM201.878 83.1518C202.301 82.8411 202.731 82.5382 203.168 82.2434C209.978 77.6452 218.464 74.9995 228.886 75.1037C275.213 75.567 254.213 164.376 230.321 193.645C231.698 195.02 233.147 196.189 234.657 197.184C240.594 201.098 247.482 202.343 254.661 202.975C256.824 203.165 259.014 203.3 261.212 203.435C263.619 203.583 266.035 203.732 268.438 203.955C271.928 204.279 274.22 207.589 273.562 211.029L264.736 257.157C264.342 260.376 261.129 262.44 258.266 260.914C255.486 259.433 253.019 257.628 251.036 255.483C250.696 255.115 250.37 254.737 250.059 254.348C247.641 251.329 246.14 247.699 245.964 243.422C245.558 243.338 245.156 243.25 244.757 243.156C243.805 242.933 242.871 242.683 241.954 242.408C227.458 238.047 217.342 227.312 208.118 217.524L207.827 217.215C206.806 216.132 205.168 215.927 203.876 216.667C181.659 229.4 153.695 230.072 132.202 215.419C113.265 238.314 98.2626 251.203 78.3267 264.383C75.0733 266.534 70.7108 265.675 68.454 262.496L44.5458 228.819L37.9698 219.557C36.1762 216.893 37.2081 213.266 40.3193 212.462C43.4456 211.654 46.4765 211.307 49.3671 211.465C49.556 211.476 49.7444 211.488 49.9321 211.503C54.446 211.856 58.6059 213.466 62.237 216.509C62.8919 217.058 63.5296 217.653 64.1491 218.296C64.6432 218.809 65.3487 219.076 66.05 218.949C66.7208 218.829 67.4001 218.692 68.0867 218.538C81.4529 215.554 97.5804 206.448 107.537 194.107C108.859 192.468 108.893 190.208 107.914 188.344C86.4076 147.441 93.9094 24.9151 148.883 43.8354C163.747 48.9511 171.707 60.0765 175.093 74.1195C177.022 82.1225 177.466 91.0731 176.855 100.399C176.372 107.765 175.231 115.365 173.644 122.918C169.808 141.175 163.366 159.153 157.32 172.865C155.328 177.383 153.378 181.437 151.579 184.887C150.594 186.777 151.112 189.137 152.985 190.156C156.228 191.92 159.677 193.045 163.207 193.589L163.211 193.589C163.484 193.631 163.758 193.67 164.032 193.705C165.675 193.916 167.334 194.002 168.995 193.97C171.063 193.931 173.136 193.708 175.188 193.313C175.306 193.29 175.425 193.266 175.543 193.243C178.765 192.59 181.933 191.514 184.952 190.057C186.863 189.135 187.562 186.839 186.794 184.862C185.632 181.871 184.578 178.612 183.654 175.15C178.575 156.13 177.411 131.007 183.745 110.695C187.266 99.4017 193.106 89.5955 201.878 83.1518ZM126.714 129.395C126.528 136.976 126.834 144.186 127.55 149.741C127.657 150.576 127.774 151.374 127.9 152.13C128.296 154.506 131.049 155.045 132.407 153.055C132.814 152.457 133.23 151.829 133.653 151.172C136.746 146.367 140.195 140.032 143.244 133.174C145.575 127.93 147.672 122.38 149.196 116.973C150.132 113.655 150.852 110.391 151.278 107.284C151.636 104.674 151.786 102.176 151.684 99.8495C151.414 93.7617 149.408 88.8558 144.835 86.234C136.785 81.6198 131.759 91.5181 129.084 105.451C127.669 112.82 126.912 121.319 126.714 129.395ZM196.075 57.3003C189.463 40.8335 176.893 26.8811 157.067 20.0573C145.996 16.247 134.446 15.4999 123.263 18.8389C112.232 22.1323 103.617 28.7821 97.157 36.3331C84.8134 50.761 78.3214 70.7326 74.9757 89.1649C71.5095 108.261 70.8234 129.071 72.4577 148.01C73.5714 160.916 75.8635 174.154 79.7461 185.898C76.6001 188.156 73.1913 190.078 69.8978 191.529C58.4181 185.552 45.6149 185.121 34.0285 188.114C10.9655 194.073 7.51538 219.35 17.1099 233.601C17.226 233.773 17.3443 233.944 17.4647 234.114L47.9489 277.053C57.8961 291.065 77.3967 295.144 92.1951 285.36C109.337 274.027 123.359 262.688 138.426 246.493C158.828 253.622 180.871 252.812 200.585 245.762C207.176 251.937 215.513 258.497 225.847 263.156C230.839 272.493 238.814 279.044 246.441 283.107C267.428 294.289 286.516 278.21 289.481 261.638L298.261 215.755C301.477 198.945 290.235 180.723 270.762 178.915C269.695 178.816 268.59 178.728 267.491 178.647C274.432 162.027 279.349 143.13 280.971 125.935C282.372 111.093 281.728 93.7573 274.759 78.9795C271.098 71.2147 265.455 63.6985 257.132 58.176C248.734 52.6032 239.103 50.0576 229.138 49.9579C216.847 49.835 205.737 52.4106 196.075 57.3003ZM46.2757 235.515L44.5458 228.819L46.2757 235.515Z" fill="white"/>
</g>
</g>
<defs>
<filter id="filter0_d_2212_98969" x="-23.8945" y="-19.2832" width="358.701" height="346.01" filterUnits="userSpaceOnUse" color-interpolation-filters="sRGB">
<feFlood flood-opacity="0" result="BackgroundImageFix"/>
<feColorMatrix in="SourceAlpha" type="matrix" values="0 0 0 0 0 0 0 0 0 0 0 0 0 0 0 0 0 0 127 0" result="hardAlpha"/>
<feOffset/>
<feGaussianBlur stdDeviation="18"/>
<feComposite in2="hardAlpha" operator="out"/>
<feColorMatrix type="matrix" values="0 0 0 0 0 0 0 0 0 0 0 0 0 0 0 0 0 0 0.08 0"/>
<feBlend mode="normal" in2="BackgroundImageFix" result="effect1_dropShadow_2212_98969"/>
<feBlend mode="normal" in="SourceGraphic" in2="effect1_dropShadow_2212_98969" result="shape"/>
</filter>
<clipPath id="clip0_2212_98969">
<rect width="320" height="320" fill="white"/>
</clipPath>
</defs>
</svg>
