<svg viewBox="0 0 320 320" fill="none" xmlns="http://www.w3.org/2000/svg">
<g clip-path="url(#clip0_2031_201123)">
<g filter="url(#filter0_d_2031_201123)">
<path fill-rule="evenodd" clip-rule="evenodd" d="M148.883 43.8348C200.41 61.5691 168.978 151.528 151.579 184.886C150.593 186.776 151.112 189.136 152.985 190.155C162.914 195.557 174.781 194.964 184.951 190.057C186.863 189.134 187.562 186.839 186.794 184.862C172.856 148.983 174.466 74.5588 228.886 75.103C275.212 75.5664 254.212 164.375 230.321 193.645C240.522 203.835 254.702 202.679 268.438 203.954C271.928 204.278 274.22 207.588 273.562 211.029L264.735 257.156C264.342 260.375 261.129 262.439 258.266 260.913C251.299 257.201 246.294 251.453 245.963 243.421C229.118 239.947 217.955 227.961 207.827 217.214C206.806 216.131 205.167 215.926 203.876 216.667C181.659 229.399 153.695 230.071 132.202 215.418C113.265 238.313 98.2623 251.203 78.3264 264.383C75.073 266.534 70.7105 265.674 68.4538 262.495L37.9695 219.556C36.176 216.892 37.2079 213.265 40.3191 212.461C49.4493 210.102 57.7666 211.671 64.1488 218.296C64.6429 218.809 65.3484 219.075 66.0497 218.949C79.7794 216.48 97.0687 207.081 107.536 194.107C108.859 192.468 108.893 190.207 107.913 188.344C86.4074 147.441 93.9091 24.9145 148.883 43.8348ZM144.834 86.2334C161.667 95.8826 143.722 136.47 132.406 153.054C131.048 155.044 128.296 154.505 127.9 152.13C124.358 130.861 127.929 76.5427 144.834 86.2334ZM220.106 104.244C236.698 109.083 222.781 143.453 215.206 157.99C214.209 159.903 211.795 160 211.032 157.983C205.375 143.022 203.638 99.4415 220.106 104.244Z" fill="#F77F3B"/>
<path d="M248.303 189.373C258.441 171.587 266.372 146.806 268.453 124.753C269.765 110.852 268.957 96.1548 263.386 84.3417C260.513 78.2473 256.248 72.6784 250.18 68.6522C244.075 64.6009 236.89 62.6089 229.012 62.5301C212.266 62.3627 198.713 68.0708 188.633 77.9553C187.937 73.3243 186.868 68.8087 185.35 64.4923C180.211 49.883 169.93 37.7811 152.975 31.9457C144.003 28.8581 135.164 28.407 126.86 30.8863C118.632 33.3427 111.965 38.3646 106.711 44.5064C96.4901 56.453 90.5344 73.8489 87.3468 91.4098C84.099 109.303 83.4362 128.987 84.9844 146.928C86.3337 162.565 89.4436 177.836 94.6295 189.698C87.336 197.092 77.2622 202.8 68.4956 205.439C59.1157 198.55 47.872 197.523 37.1737 200.287C24.0865 203.669 21.8456 218.121 27.5396 226.578C27.5976 226.664 27.6568 226.75 27.717 226.835L58.2012 269.774C64.3031 278.369 76.2347 280.838 85.2606 274.871C103.743 262.652 118.313 250.541 135.021 231.504C156.89 241.946 182.165 240.893 203.547 230.979C211.372 239.086 221.521 248.445 235.25 253.422C238.433 262.122 245.237 268.218 252.353 272.01C264.345 278.399 275.539 269.185 277.133 259.265L285.911 213.392C287.849 203.267 281.081 192.5 269.6 191.434C266.26 191.124 263.483 190.961 260.98 190.814C257.097 190.586 253.871 190.396 250.222 189.757C249.553 189.64 248.914 189.513 248.303 189.373ZM63.8246 206.574C63.8273 206.573 63.8299 206.573 63.8326 206.572L63.8246 206.574ZM167.277 181.375C168.323 179.096 169.387 176.684 170.455 174.158C171.002 176.533 171.604 178.842 172.255 181.071C170.565 181.356 168.897 181.456 167.277 181.375ZM145.245 96.0987C145.278 96.0562 145.295 96.0378 145.295 96.0393C145.295 96.0408 145.279 96.062 145.245 96.0987ZM221.947 114.606C221.959 114.587 221.965 114.578 221.965 114.579C221.966 114.579 221.959 114.588 221.947 114.606Z" stroke="white" stroke-width="25.1471" stroke-linecap="square" stroke-linejoin="round"/>
</g>
</g>
<defs>
<filter id="filter0_d_2031_201123" x="-23.8945" y="-19.2842" width="358.701" height="346.01" filterUnits="userSpaceOnUse" color-interpolation-filters="sRGB">
<feFlood flood-opacity="0" result="BackgroundImageFix"/>
<feColorMatrix in="SourceAlpha" type="matrix" values="0 0 0 0 0 0 0 0 0 0 0 0 0 0 0 0 0 0 127 0" result="hardAlpha"/>
<feOffset/>
<feGaussianBlur stdDeviation="18"/>
<feComposite in2="hardAlpha" operator="out"/>
<feColorMatrix type="matrix" values="0 0 0 0 0 0 0 0 0 0 0 0 0 0 0 0 0 0 0.08 0"/>
<feBlend mode="normal" in2="BackgroundImageFix" result="effect1_dropShadow_2031_201123"/>
<feBlend mode="normal" in="SourceGraphic" in2="effect1_dropShadow_2031_201123" result="shape"/>
</filter>
<clipPath id="clip0_2031_201123">
<rect width="320" height="320" fill="white"/>
</clipPath>
</defs>
</svg>
