<svg viewBox="0 0 19 18" fill="none" xmlns="http://www.w3.org/2000/svg">
<path fill-rule="evenodd" clip-rule="evenodd" d="M10.6134 2.47507C13.3837 3.92669 10.8119 8.73871 9.53214 10.473C9.45964 10.5713 9.46844 10.7092 9.56584 10.7831C10.0823 11.1751 10.7613 11.2449 11.3817 11.0561C11.4982 11.0207 11.558 10.8969 11.5317 10.7785C11.0543 8.62858 11.797 4.435 14.8821 4.93997C17.5082 5.36984 15.5388 10.2077 13.9262 11.6543C14.4162 12.3193 15.2314 12.3776 16.0001 12.5693C16.1954 12.618 16.2966 12.8252 16.2291 13.0139L15.3243 15.5449C15.2738 15.7234 15.0734 15.8121 14.9241 15.7009C14.5611 15.4303 14.3272 15.0617 14.3787 14.6048C13.4527 14.2616 12.9238 13.4867 12.4428 12.7908C12.3943 12.7207 12.3031 12.6949 12.2233 12.7255C10.8505 13.2517 9.25685 13.046 8.16482 12.0303C6.88929 13.1597 5.9247 13.7577 4.67747 14.3291C4.47393 14.4224 4.23376 14.3358 4.13345 14.1364L2.77842 11.4432C2.6999 11.2769 2.79022 11.0808 2.9739 11.0625C3.51293 11.0087 3.97143 11.1699 4.27581 11.6C4.29938 11.6333 4.3371 11.6545 4.37802 11.6535C5.17915 11.6336 6.24302 11.2528 6.95087 10.6105C7.04028 10.5294 7.06203 10.4019 7.02272 10.288C6.15961 7.78812 7.65773 0.926375 10.6134 2.47507ZM10.0125 4.83684C10.8838 5.52904 9.50973 7.6673 8.72214 8.5063C8.62763 8.60698 8.47606 8.55253 8.47438 8.41478C8.45936 7.18149 9.13747 4.14166 10.0125 4.83684ZM14.1286 6.51099C15.0282 6.92913 13.9373 8.75102 13.38 9.50687C13.3067 9.6063 13.1688 9.59074 13.1431 9.4701C12.9528 8.57496 13.2356 6.09597 14.1286 6.51099Z" fill="#646B72"/>
</svg>
