<svg viewBox="0 0 18 18" fill="none" xmlns="http://www.w3.org/2000/svg">
<path fill-rule="evenodd" clip-rule="evenodd" d="M10.3195 1.26675C13.6029 2.98719 10.5548 8.69033 9.03809 10.7458C8.95217 10.8623 8.96259 11.0257 9.07803 11.1134C9.69015 11.5779 10.4948 11.6607 11.2301 11.4369C11.3683 11.3949 11.4391 11.2482 11.408 11.1078C10.8422 8.5598 11.7224 3.58963 15.3787 4.18812C18.4912 4.69759 16.1571 10.4314 14.2459 12.1459C14.8266 12.934 15.7928 13.003 16.7038 13.2303C16.9353 13.288 17.0552 13.5335 16.9752 13.7572L15.9029 16.7569C15.8431 16.9685 15.6055 17.0736 15.4286 16.9418C14.9983 16.6211 14.7211 16.1843 14.7822 15.6427C13.6847 15.236 13.0578 14.3175 12.4877 13.4929C12.4303 13.4097 12.3222 13.3791 12.2276 13.4154C10.6005 14.0391 8.71182 13.7953 7.41756 12.5915C5.90582 13.93 4.7626 14.6387 3.28441 15.316C3.04318 15.4265 2.75853 15.3239 2.63964 15.0876L1.03368 11.8956C0.94062 11.6986 1.04767 11.4662 1.26536 11.4445C1.90421 11.3807 2.44762 11.5717 2.80837 12.0815C2.8363 12.121 2.88101 12.1461 2.92951 12.1449C3.87899 12.1213 5.13988 11.67 5.97881 10.9088C6.08478 10.8126 6.11056 10.6615 6.06396 10.5265C5.04102 7.5637 6.81656 -0.568741 10.3195 1.26675ZM9.6074 4.06588C10.64 4.88627 9.01153 7.4205 8.07809 8.41488C7.96608 8.5342 7.78644 8.46967 7.78446 8.3064C7.76665 6.84473 8.57034 3.24197 9.6074 4.06588ZM14.4857 6.05006C15.552 6.54564 14.259 8.70491 13.5985 9.60074C13.5116 9.71858 13.3482 9.70014 13.3178 9.55715C13.0922 8.49625 13.4274 5.55818 14.4857 6.05006Z" fill="#464C52"/>
</svg>
