<svg viewBox="0 0 28 28" fill="none" xmlns="http://www.w3.org/2000/svg">
<path fill-rule="evenodd" clip-rule="evenodd" d="M13.1148 7.89313L11.5526 8.75261C11.0715 9.01731 10.5165 9.11582 9.97367 9.03286L5.32191 8.32194C4.62964 8.21622 4 8.70541 4 9.34859V22.8513C4 23.3602 4.40128 23.7945 4.94834 23.8781L9.97368 24.6461C10.5165 24.729 11.0715 24.6305 11.5526 24.3658L15.6287 22.1232C16.18 21.8199 16.8256 21.7362 17.436 21.8888L21.2956 22.8541C22.0178 23.0346 22.7295 22.5362 22.7295 21.8499V14.6333C22.4488 14.8423 22.1764 15.0315 21.9207 15.1992C21.6198 15.3966 21.2944 15.5429 20.9572 15.637V20.9426L17.866 20.1695C17.7597 20.1429 17.6528 20.1205 17.5455 20.1023V14.7974C16.9694 14.398 16.3548 13.9122 15.7732 13.3496L15.7732 20.1752C15.4276 20.2636 15.0919 20.3957 14.7744 20.5704L11.9754 22.1104L11.9754 10.5122C12.1224 10.4517 12.2665 10.3827 12.407 10.3054L13.4044 9.75664C13.2229 9.18739 13.1147 8.57681 13.1147 7.92988C13.1147 7.91761 13.1147 7.90536 13.1148 7.89313ZM5.77231 22.2111L10.2031 22.8882L10.2031 10.8313C10.0372 10.8255 9.87125 10.8101 9.70592 10.7848L5.77231 10.1837V22.2111Z" fill="white"/>
<path fill-rule="evenodd" clip-rule="evenodd" d="M19.3143 13.5336C17.5875 12.4786 15.1402 10.3878 15.1402 7.92989C15.1402 4.36941 17.879 3 20.0701 3C22.2612 3 25 4.6433 25 7.92989C25 10.2058 22.5375 12.3723 20.8097 13.5056C20.3562 13.8031 19.7772 13.8164 19.3143 13.5336ZM20.0701 10.121C21.2802 10.121 22.2612 9.13998 22.2612 7.92989C22.2612 6.7198 21.2802 5.73883 20.0701 5.73883C18.86 5.73883 17.879 6.7198 17.879 7.92989C17.879 9.13998 18.86 10.121 20.0701 10.121Z" fill="white"/>
</svg>
