<svg viewBox="0 0 29 28" fill="none" xmlns="http://www.w3.org/2000/svg">
<path fill-rule="evenodd" clip-rule="evenodd" d="M14.0328 7.89313L12.4706 8.75261C11.9895 9.01731 11.4345 9.11582 10.8916 9.03286L6.23988 8.32194C5.54761 8.21622 4.91797 8.70541 4.91797 9.34859V22.8513C4.91797 23.3602 5.31925 23.7945 5.86631 23.8781L10.8916 24.6461C11.4345 24.729 11.9895 24.6305 12.4706 24.3658L16.5467 22.1232C17.098 21.8199 17.7435 21.7362 18.3539 21.8888L22.2136 22.8541C22.9358 23.0346 23.6475 22.5362 23.6475 21.8499V14.6333C23.3667 14.8423 23.0943 15.0315 22.8387 15.1992C22.5377 15.3966 22.2124 15.5429 21.8752 15.637V20.9426L18.7839 20.1695C18.6777 20.1429 18.5708 20.1205 18.4635 20.1023V14.7974C17.8874 14.398 17.2727 13.9122 16.6912 13.3496L16.6912 20.1752C16.3456 20.2636 16.0098 20.3957 15.6923 20.5704L12.8934 22.1104L12.8933 10.5122C13.0404 10.4517 13.1845 10.3827 13.3249 10.3054L14.3224 9.75664C14.1409 9.18739 14.0327 8.57681 14.0327 7.92988C14.0327 7.91761 14.0327 7.90536 14.0328 7.89313ZM6.69028 22.2111L11.121 22.8882L11.121 10.8313C10.9552 10.8255 10.7892 10.8101 10.6239 10.7848L6.69028 10.1837V22.2111Z" fill="#26282B"/>
<path fill-rule="evenodd" clip-rule="evenodd" d="M20.2323 13.5336C18.5054 12.4786 16.0582 10.3878 16.0582 7.92989C16.0582 4.36941 18.797 3 20.9881 3C23.1791 3 25.918 4.6433 25.918 7.92989C25.918 10.2058 23.4554 12.3723 21.7277 13.5056C21.2742 13.8031 20.6952 13.8164 20.2323 13.5336ZM20.9881 10.121C22.1982 10.121 23.1791 9.13998 23.1791 7.92989C23.1791 6.7198 22.1982 5.73883 20.9881 5.73883C19.778 5.73883 18.797 6.7198 18.797 7.92989C18.797 9.13998 19.778 10.121 20.9881 10.121Z" fill="#26282B"/>
</svg>
