<svg viewBox="0 0 24 24" fill="#464C52" xmlns="http://www.w3.org/2000/svg">
<mask id="path-1-inside-1_383_2526" fill="white">
<path fill-rule="evenodd" clip-rule="evenodd" d="M6 4C3.79086 4 2 5.79086 2 8V16C2 18.2091 3.79086 20 6 20H6.27308L7.69705 21.9183C8.09686 22.4569 8.90314 22.4569 9.30296 21.9183L10.7269 20H18C20.2091 20 22 18.2091 22 16V8C22 5.79086 20.2091 4 18 4H6Z"/>
</mask>
<path d="M6.27308 20L7.87899 18.8079C7.5017 18.2997 6.90607 18 6.27308 18V20ZM7.69705 21.9183L6.09114 23.1104H6.09114L7.69705 21.9183ZM9.30296 21.9183L10.9089 23.1104L10.9089 23.1104L9.30296 21.9183ZM10.7269 20V18C10.0939 18 9.4983 18.2997 9.12101 18.8079L10.7269 20ZM4 8C4 6.89543 4.89543 6 6 6V2C2.68629 2 0 4.68629 0 8H4ZM4 16V8H0V16H4ZM6 18C4.89543 18 4 17.1046 4 16H0C0 19.3137 2.68629 22 6 22V18ZM6.27308 18H6V22H6.27308V18ZM9.30296 20.7262L7.87899 18.8079L4.66717 21.1921L6.09114 23.1104L9.30296 20.7262ZM7.69705 20.7262C8.09686 20.1876 8.90313 20.1876 9.30296 20.7262L6.09114 23.1104C7.29059 24.7262 9.70942 24.7262 10.9089 23.1104L7.69705 20.7262ZM9.12101 18.8079L7.69705 20.7262L10.9089 23.1104L12.3328 21.1921L9.12101 18.8079ZM18 18H10.7269V22H18V18ZM20 16C20 17.1046 19.1046 18 18 18V22C21.3137 22 24 19.3137 24 16H20ZM20 8V16H24V8H20ZM18 6C19.1046 6 20 6.89543 20 8H24C24 4.68629 21.3137 2 18 2V6ZM6 6H18V2H6V6Z" mask="url(#path-1-inside-1_383_2526)"/>
<circle cx="7" cy="12" r="1" />
<circle cx="12" cy="12" r="1" />
<circle cx="17" cy="12" r="1" />
</svg>
