<svg viewBox="0 0 12 12" fill="none" xmlns="http://www.w3.org/2000/svg">
<mask id="path-1-inside-1_1191_10903" fill="white">
<path fill-rule="evenodd" clip-rule="evenodd" d="M3.00001 2C1.89543 2 1 2.89543 1 4.00001V8.00003C1 9.1046 1.89544 10 3.00001 10H3.13655L3.84853 10.9592C4.04844 11.2285 4.45158 11.2285 4.65149 10.9592L5.36348 10H9.00003C10.1046 10 11 9.1046 11 8.00002V4.00001C11 2.89543 10.1046 2 9.00003 2H3.00001Z"/>
</mask>
<path d="M3.13655 10L3.93951 9.40399C3.75086 9.14986 3.45305 9.00003 3.13655 9.00003V10ZM3.84853 10.9592L3.04558 11.5552L3.04558 11.5552L3.84853 10.9592ZM4.65149 10.9592L5.45445 11.5552L5.45445 11.5552L4.65149 10.9592ZM5.36348 10V9.00003C5.04698 9.00003 4.74917 9.14986 4.56052 9.40399L5.36348 10ZM2 4.00001C2 3.44772 2.44772 3 3.00001 3V0.999996C1.34315 0.999996 -4.05312e-06 2.34315 -4.05312e-06 4.00001H2ZM2 8.00003V4.00001H-4.05312e-06V8.00003H2ZM3.00001 9.00003C2.44772 9.00003 2 8.55231 2 8.00003H-4.05312e-06C-4.05312e-06 9.65689 1.34315 11 3.00001 11V9.00003ZM3.13655 9.00003H3.00001V11H3.13655V9.00003ZM4.65149 10.3631L3.93951 9.40399L2.33359 10.5961L3.04558 11.5552L4.65149 10.3631ZM3.84854 10.3631C4.04844 10.0938 4.45158 10.0938 4.65149 10.3631L3.04558 11.5552C3.6453 12.3632 4.85472 12.3632 5.45445 11.5552L3.84854 10.3631ZM4.56052 9.40399L3.84853 10.3631L5.45445 11.5552L6.16644 10.5961L4.56052 9.40399ZM9.00003 9.00003H5.36348V11H9.00003V9.00003ZM10 8.00002C10 8.55231 9.55232 9.00003 9.00003 9.00003V11C10.6569 11 12 9.65688 12 8.00002H10ZM10 4.00001V8.00002H12V4.00001H10ZM9.00003 3C9.55232 3 10 3.44772 10 4.00001H12C12 2.34315 10.6569 0.999996 9.00003 0.999996V3ZM3.00001 3H9.00003V0.999996H3.00001V3Z" fill="#FF7834" mask="url(#path-1-inside-1_1191_10903)"/>
<circle cx="3.5" cy="6" r="0.500002" fill="#FF7834"/>
<circle cx="6" cy="6" r="0.500002" fill="#FF7834"/>
<circle cx="8.5" cy="6" r="0.500002" fill="#FF7834"/>
</svg>
