<svg viewBox="0 0 12 12" fill="none" xmlns="http://www.w3.org/2000/svg">
<path d="M0.5 10L11.5 2" stroke="#646B72" stroke-linecap="round" stroke-linejoin="round"/>
<circle cx="3.5" cy="6" r="0.500002" fill="#646B72"/>
<circle cx="8.5" cy="6" r="0.500002" fill="#646B72"/>
<path fill-rule="evenodd" clip-rule="evenodd" d="M8.94998 2H3.00001C1.89543 2 1 2.89543 1 4.00001V7.7818L2 7.05452V4.00001C2 3.44772 2.44772 3 3.00001 3H7.57497L8.94998 2ZM3.91448 9.37167C3.92302 9.38225 3.93136 9.39302 3.93951 9.40399L4.25001 9.82229L4.56052 9.40399C4.74917 9.14986 5.04698 9.00003 5.36348 9.00003H9.00003C9.55232 9.00003 10 8.55231 10 8.00002V4.94581L11 4.21854V8.00002C11 9.1046 10.1046 10 9.00003 10H5.36348L4.65149 10.9592C4.45158 11.2285 4.04844 11.2285 3.84853 10.9592L3.13655 10H3.05048L3.91448 9.37167Z" fill="#646B72"/>
</svg>
