<svg viewBox="0 0 32 32" fill="none" xmlns="http://www.w3.org/2000/svg">
<circle cx="16.0007" cy="16.0002" r="14.1667" fill="#1B1D1F" fill-opacity="0.8" stroke="#9FA4A9"/>
<path d="M10.0886 18.1591C10.1338 17.9529 10.2395 17.7611 10.3917 17.6088L16.0627 11.9379C16.48 11.5206 17.1349 11.4989 17.5254 11.8894L19.6467 14.0107C20.0373 14.4012 20.0155 15.0561 19.5982 15.4735L13.9273 21.1444C13.775 21.2967 13.5832 21.4023 13.3771 21.4475L10.6598 22.0435C9.94036 22.2013 9.33483 21.5958 9.49261 20.8763L10.0886 18.1591Z" fill="#F8F8F9"/>
<path d="M18.2322 11.182C17.8417 10.7915 17.8417 10.1583 18.2322 9.76777L19.2929 8.70711C19.6834 8.31658 20.3166 8.31658 20.7071 8.70711L22.8284 10.8284C23.219 11.219 23.219 11.8521 22.8284 12.2426L21.7678 13.3033C21.3772 13.6938 20.7441 13.6938 20.3536 13.3033L18.2322 11.182Z" fill="#F8F8F9"/>
</svg>
