<svg viewBox="0 0 24 24" fill="none" xmlns="http://www.w3.org/2000/svg">
<circle cx="12" cy="12" r="11" fill="#E9EBED"/>
<path d="M7.56643 13.6193C7.60034 13.4647 7.6796 13.3208 7.79381 13.2066L12.047 8.95344C12.36 8.64044 12.8512 8.62414 13.1441 8.91703L14.7351 10.508C15.0279 10.8009 15.0116 11.2921 14.6986 11.6051L10.4455 15.8583C10.3312 15.9725 10.1874 16.0518 10.0328 16.0857L7.99483 16.5326C7.45527 16.651 7.00112 16.1968 7.11946 15.6573L7.56643 13.6193Z" fill="#646B72"/>
<path d="M13.6742 8.38649C13.3813 8.09359 13.3813 7.61872 13.6742 7.32583L14.4697 6.53033C14.7626 6.23744 15.2374 6.23744 15.5303 6.53033L17.1213 8.12132C17.4142 8.41421 17.4142 8.88909 17.1213 9.18198L16.3258 9.97748C16.0329 10.2704 15.5581 10.2704 15.2652 9.97748L13.6742 8.38649Z" fill="#646B72"/>
</svg>
