<svg viewBox="0 0 24 24" fill="none" xmlns="http://www.w3.org/2000/svg">
<path d="M21 12C21 16.9706 16.9706 21 12 21C7.02944 21 3 16.9706 3 12C3 7.02944 7.02944 3 12 3C16.9706 3 21 7.02944 21 12Z" stroke="#464C52" stroke-width="2"/>
<path d="M12 7.5C11.3787 7.5 10.875 8.00368 10.875 8.625V10.875H8.625C8.00368 10.875 7.5 11.3787 7.5 12C7.5 12.6213 8.00368 13.125 8.625 13.125H10.875V15.375C10.875 15.9963 11.3787 16.5 12 16.5C12.6213 16.5 13.125 15.9963 13.125 15.375V13.125H15.375C15.9963 13.125 16.5 12.6213 16.5 12C16.5 11.3787 15.9963 10.875 15.375 10.875H13.125V8.625C13.125 8.00368 12.6213 7.5 12 7.5Z" fill="#464C52"/>
</svg>
