<svg viewBox="0 0 24 24" fill="none" xmlns="http://www.w3.org/2000/svg">
<circle cx="10.5" cy="10.5" r="5.5" fill="#FFE7DB"/>
<path d="M14.7411 17.364C14.1816 16.6181 14.2558 15.5743 14.9151 14.915C15.5744 14.2557 16.6182 14.1815 17.3641 14.741L20.0272 16.7384C21.1707 17.5962 21.2895 19.2678 20.2787 20.2786C19.2679 21.2894 17.5962 21.1706 16.7385 20.0271L14.7411 17.364Z" fill="#F66015"/>
<path d="M11.4478 9.53269C11.9766 10.0615 11.9766 10.9189 11.4478 11.4478C10.9189 11.9766 10.0615 11.9766 9.53269 11.4478C9.00386 10.9189 9.00386 10.0615 9.53269 9.53269C10.0615 9.00386 10.9189 9.00386 11.4478 9.53269Z" stroke="#FF7834" stroke-width="13.5417"/>
<circle cx="13.375" cy="8.91602" r="2" fill="white"/>
</svg>
