<svg viewBox="0 0 24 24" fill="#464C52" xmlns="http://www.w3.org/2000/svg">
<path fill-rule="evenodd" clip-rule="evenodd" d="M6.66007 14.3204C4.54473 12.2051 4.54473 8.77541 6.66007 6.66007C8.77541 4.54473 12.2051 4.54473 14.3204 6.66007C16.4357 8.77541 16.4357 12.2051 14.3204 14.3204C12.2051 16.4357 8.77541 16.4357 6.66007 14.3204ZM17.4001 14.768C19.3439 11.6343 18.9557 7.46517 16.2355 4.74499C13.0625 1.57198 7.918 1.57198 4.74499 4.74499C1.57198 7.918 1.57198 13.0625 4.74499 16.2355C7.4652 18.9557 11.6343 19.3439 14.7681 17.4L16.7385 20.0271C17.5962 21.1706 19.2679 21.2894 20.2787 20.2786C21.2895 19.2678 21.1707 17.5962 20.0272 16.7384L17.4001 14.768Z" />
</svg>
