<svg viewBox="0 0 24 24" fill="none" xmlns="http://www.w3.org/2000/svg">
<path d="M17.3996 14.7681C17.076 15.2897 16.6878 15.7827 16.235 16.2355C15.7822 16.6883 15.2892 17.0765 14.7676 17.4001L16.738 20.0272C17.5957 21.1707 19.2674 21.2895 20.2782 20.2787C21.289 19.2679 21.1702 17.5962 20.0266 16.7385L17.3996 14.7681Z" fill="#F66015"/>
<path d="M16 10.5C16 13.5376 13.5376 16 10.5 16C7.46243 16 5 13.5376 5 10.5C5 7.46243 7.46243 5 10.5 5C13.5376 5 16 7.46243 16 10.5Z" fill="#FFE7DB"/>
<path fill-rule="evenodd" clip-rule="evenodd" d="M6.66007 6.66007C4.54473 8.77541 4.54473 12.2051 6.66007 14.3204C8.77541 16.4357 12.2051 16.4357 14.3204 14.3204C16.4357 12.2051 16.4357 8.77541 14.3204 6.66007C12.2051 4.54473 8.77541 4.54473 6.66007 6.66007ZM16.2355 16.2355C19.4085 13.0625 19.4085 7.918 16.2355 4.74499C13.0625 1.57198 7.918 1.57198 4.74499 4.74499C1.57198 7.918 1.57198 13.0625 4.74499 16.2355C7.918 19.4085 13.0625 19.4085 16.2355 16.2355Z" fill="#FF7834"/>
</svg>
