<svg viewBox="0 0 24 24" fill="none" xmlns="http://www.w3.org/2000/svg">
<path fill-rule="evenodd" clip-rule="evenodd" d="M9.99287 3.34562C10.0689 2.85885 10.4882 2.5 10.9809 2.5H13.0191C13.5118 2.5 13.9311 2.85885 14.0071 3.34562L14.237 4.81697C14.8035 4.98163 15.3441 5.20726 15.8511 5.48626L17.0553 4.60759C17.4532 4.31717 18.0035 4.3599 18.3518 4.70828L19.7931 6.14952C20.1415 6.4979 20.1842 7.04812 19.8938 7.4461L19.0147 8.65068C19.2933 9.1572 19.5186 9.69715 19.683 10.263L21.1544 10.4929C21.6412 10.5689 22 10.9882 22 11.4809V13.5191C22 14.0118 21.6412 14.4311 21.1544 14.5071L19.683 14.737C19.5185 15.303 19.2931 15.8432 19.0145 16.3498L19.8934 17.5543C20.1838 17.9523 20.1411 18.5025 19.7927 18.8509L18.3515 20.2921C18.0031 20.6405 17.4529 20.6832 17.0549 20.3928L15.8506 19.514C15.3437 19.7929 14.8033 20.0184 14.237 20.183L14.0071 21.6544C13.9311 22.1412 13.5118 22.5 13.0191 22.5H10.9809C10.4882 22.5 10.0689 22.1412 9.99287 21.6544L9.76297 20.183C9.19647 20.0184 8.6559 19.7927 8.14885 19.5137L6.94475 20.3924C6.54676 20.6828 5.99655 20.6401 5.64817 20.2917L4.20692 18.8505C3.85854 18.5021 3.81582 17.9519 4.10624 17.5539L4.98526 16.3493C4.70671 15.8428 4.48144 15.3029 4.31697 14.737L2.84562 14.5071C2.35885 14.4311 2 14.0118 2 13.5191V11.4809C2 10.9882 2.35885 10.5689 2.84562 10.4929L4.31697 10.263C4.48149 9.69696 4.70686 9.15684 4.98554 8.65017L4.10662 7.44572C3.81619 7.04774 3.85892 6.49752 4.2073 6.14915L5.64855 4.7079C5.99693 4.35952 6.54714 4.31679 6.94512 4.60721L8.14936 5.48598C8.65626 5.2071 9.19666 4.98158 9.76297 4.81697L9.99287 3.34562ZM12 16.5C14.2091 16.5 16 14.7091 16 12.5C16 10.2909 14.2091 8.5 12 8.5C9.79086 8.5 8 10.2909 8 12.5C8 14.7091 9.79086 16.5 12 16.5Z" fill="#1B1D1F"/>
</svg>
