<svg viewBox="0 0 18 18" fill="none" xmlns="http://www.w3.org/2000/svg">
<path d="M9.9375 9C9.9375 8.48223 9.51777 8.0625 9 8.0625C8.48223 8.0625 8.0625 8.48223 8.0625 9C8.0625 9.51777 8.48223 9.9375 9 9.9375C9.51777 9.9375 9.9375 9.51777 9.9375 9Z" fill="#1B1D1F"/>
<path d="M9.9375 4.6875C9.9375 4.16973 9.51777 3.75 9 3.75C8.48223 3.75 8.0625 4.16973 8.0625 4.6875C8.0625 5.20527 8.48223 5.625 9 5.625C9.51777 5.625 9.9375 5.20527 9.9375 4.6875Z" fill="#1B1D1F"/>
<path d="M9.9375 13.3125C9.9375 12.7947 9.51777 12.375 9 12.375C8.48223 12.375 8.0625 12.7947 8.0625 13.3125C8.0625 13.8303 8.48223 14.25 9 14.25C9.51777 14.25 9.9375 13.8303 9.9375 13.3125Z" fill="#1B1D1F"/>
</svg>
