<svg viewBox="0 0 24 24" fill="none" xmlns="http://www.w3.org/2000/svg">
<path d="M13.25 12C13.25 11.3096 12.6904 10.75 12 10.75C11.3096 10.75 10.75 11.3096 10.75 12C10.75 12.6904 11.3096 13.25 12 13.25C12.6904 13.25 13.25 12.6904 13.25 12Z" fill="#F8F8F9"/>
<path d="M13.25 6.25C13.25 5.55964 12.6904 5 12 5C11.3096 5 10.75 5.55964 10.75 6.25C10.75 6.94036 11.3096 7.5 12 7.5C12.6904 7.5 13.25 6.94036 13.25 6.25Z" fill="#F8F8F9"/>
<path d="M13.25 17.75C13.25 17.0596 12.6904 16.5 12 16.5C11.3096 16.5 10.75 17.0596 10.75 17.75C10.75 18.4404 11.3096 19 12 19C12.6904 19 13.25 18.4404 13.25 17.75Z" fill="#F8F8F9"/>
</svg>
