<svg viewBox="0 0 24 24" fill="none" xmlns="http://www.w3.org/2000/svg">
<path d="M10.501 11.275C10.8323 11.275 11.101 11.5436 11.101 11.875V16.375C11.101 16.7063 10.8323 16.975 10.501 16.975C10.1696 16.975 9.90098 16.7063 9.90098 16.375V11.875C9.90098 11.5436 10.1696 11.275 10.501 11.275Z" fill="#646B72"/>
<path d="M14.101 11.875C14.101 11.5436 13.8323 11.275 13.501 11.275C13.1696 11.275 12.901 11.5436 12.901 11.875V16.375C12.901 16.7063 13.1696 16.975 13.501 16.975C13.8323 16.975 14.101 16.7063 14.101 16.375V11.875Z" fill="#646B72"/>
<path fill-rule="evenodd" clip-rule="evenodd" d="M9.42098 6.05C9.41594 6.07485 9.4113 6.09986 9.40709 6.125H7.87598C6.63334 6.125 5.62598 7.13236 5.62598 8.375V9.125C5.62598 9.53921 5.96176 9.875 6.37598 9.875H6.46455L7.09845 17.9266C7.19061 19.0971 8.16736 20 9.34151 20H14.707C15.8855 20 16.8644 19.0906 16.9509 17.9153L17.5431 9.875H17.626C18.0402 9.875 18.376 9.53921 18.376 9.125V8.375C18.376 7.13236 17.3686 6.125 16.126 6.125H14.5949C14.5906 6.09986 14.586 6.07485 14.581 6.05C14.3725 5.02299 13.4645 4.25 12.376 4.25H11.626C10.5374 4.25 9.62946 5.02299 9.42098 6.05ZM13.3249 6.05H10.677C10.8455 5.69526 11.2071 5.45 11.626 5.45H12.376C12.7948 5.45 13.1564 5.69526 13.3249 6.05ZM16.126 7.325H7.87598C7.29608 7.325 6.82598 7.7951 6.82598 8.375V8.675H17.176V8.375C17.176 7.7951 16.7059 7.325 16.126 7.325ZM8.29475 17.8324L7.67417 9.95H16.3343L15.7542 17.8271C15.7138 18.3756 15.257 18.8 14.707 18.8H9.34151C8.79357 18.8 8.33776 18.3787 8.29475 17.8324Z" fill="#646B72"/>
</svg>
