<svg viewBox="0 0 24 24" fill="#464C52" xmlns="http://www.w3.org/2000/svg">
<path d="M14.9792 11.0159L14.3827 10.2132C14.0652 10.4491 13.9166 10.85 14.0037 11.2359C14.0907 11.6218 14.3971 11.9201 14.7851 11.9968L14.9792 11.0159ZM9.02079 11.0159L9.21487 11.9968C9.60292 11.9201 9.90923 11.6218 9.99627 11.2359C10.0833 10.85 9.93472 10.4491 9.61722 10.2132L9.02079 11.0159ZM15.5756 11.8185C17.0448 10.7268 18 8.97481 18 6.99998H16C16 8.3154 15.366 9.48254 14.3827 10.2132L15.5756 11.8185ZM21.75 17.5978C21.75 16.4525 21.5398 14.8398 20.5793 13.3566C19.598 11.8412 17.9075 10.5758 15.1733 10.0349L14.7851 11.9968C17.0518 12.4453 18.2467 13.434 18.9006 14.4437C19.5753 15.4856 19.75 16.6692 19.75 17.5978H21.75ZM12 23C14.5387 23 16.8865 22.4844 18.6366 21.6039C20.3286 20.7527 21.75 19.393 21.75 17.5978H19.75C19.75 18.2339 19.2126 19.0753 17.7378 19.8173C16.321 20.5301 14.2938 21 12 21V23ZM2.25 17.5978C2.25 19.393 3.67135 20.7527 5.36338 21.6039C7.11348 22.4844 9.46131 23 12 23V21C9.7062 21 7.67903 20.5301 6.26225 19.8173C4.7874 19.0753 4.25 18.2339 4.25 17.5978H2.25ZM8.8267 10.0349C6.0925 10.5758 4.40199 11.8412 3.42068 13.3566C2.46022 14.8398 2.25 16.4525 2.25 17.5978H4.25C4.25 16.6692 4.42473 15.4856 5.09944 14.4437C5.7533 13.434 6.94819 12.4453 9.21487 11.9968L8.8267 10.0349ZM6 6.99998C6 8.97481 6.95512 10.7268 8.42435 11.8185L9.61722 10.2132C8.63392 9.48254 8 8.3154 8 6.99998H6ZM12 1C8.68628 1 6 3.68628 6 6.99998H8C8 4.79085 9.79085 3 12 3V1ZM18 6.99998C18 3.68628 15.3137 1 12 1V3C14.2091 3 16 4.79085 16 6.99998H18Z"/>
</svg>
